# xmcd
#
# Track frame offsets: 
#        183
#        25583
#        71195
#        91958
#        116758
#        162408
#
# Disc length: 3022 seconds
#
# Revision: 5
# Processed by: cddbd v1.5.2PL0 Copyright (c) Steve Scherf et al.
# Submitted via: ExactAudioCopy v0.95b4
#
DISCID=4a0bcc06
DTITLE=Taste - Live At The Isle Of Wight
DYEAR=1971
DGENRE=Rock
TTITLE0=What's Going On
TTITLE1=Sugar Mama
TTITLE2=Morning Sun
TTITLE3=Sinner Boy
TTITLE4=I Feel So Good
TTITLE5=Catfish
EXTD=YEAR: 1971
EXTT0=
EXTT1=
EXTT2=
EXTT3=
EXTT4=
EXTT5=
PLAYORDER=
